<svg xmlns="http://www.w3.org/2000/svg" width="1024" height="1024" viewBox="0 0 1024 1024">
  <defs>
    <linearGradient id="bg" x1="128" y1="92" x2="900" y2="940" gradientUnits="userSpaceOnUse">
      <stop offset="0" stop-color="#162130"/>
      <stop offset="0.48" stop-color="#0b1016"/>
      <stop offset="1" stop-color="#172230"/>
    </linearGradient>
    <linearGradient id="photo" x1="246" y1="288" x2="778" y2="708" gradientUnits="userSpaceOnUse">
      <stop offset="0" stop-color="#f2b26b"/>
      <stop offset="0.45" stop-color="#9876d5"/>
      <stop offset="1" stop-color="#55d4c7"/>
    </linearGradient>
    <linearGradient id="scan" x1="218" y1="224" x2="802" y2="782" gradientUnits="userSpaceOnUse">
      <stop offset="0" stop-color="#ecf2f8" stop-opacity="0.95"/>
      <stop offset="1" stop-color="#62a7ff" stop-opacity="0.78"/>
    </linearGradient>
    <filter id="shadow" x="-20%" y="-20%" width="140%" height="140%">
      <feDropShadow dx="0" dy="36" stdDeviation="44" flood-color="#03070c" flood-opacity="0.55"/>
    </filter>
  </defs>
  <rect x="48" y="48" width="928" height="928" rx="220" fill="url(#bg)"/>
  <path d="M160 246c0-72 58-130 130-130h444c72 0 130 58 130 130v532c0 72-58 130-130 130H290c-72 0-130-58-130-130V246z" fill="#080d13" opacity=".52"/>
  <rect x="184" y="208" width="656" height="608" rx="86" fill="#0a0f18" filter="url(#shadow)"/>
  <rect x="232" y="260" width="560" height="460" rx="48" fill="url(#photo)"/>
  <path d="M232 316h560M232 664h560" stroke="#0b1016" stroke-opacity=".24" stroke-width="28"/>
  <path d="M282 256h-62v114M742 256h62v114M282 724h-62V610M742 724h62V610" fill="none" stroke="url(#scan)" stroke-width="34" stroke-linecap="round" stroke-linejoin="round"/>
  <path d="M284 610c98-184 192-166 276-62 56 69 101 79 182-74" fill="none" stroke="#ecf2f8" stroke-width="26" stroke-linecap="round"/>
  <circle cx="316" cy="404" r="34" fill="#f06b6b"/>
  <circle cx="408" cy="404" r="34" fill="#65d99a"/>
  <circle cx="500" cy="404" r="34" fill="#62a7ff"/>
  <circle cx="704" cy="344" r="50" fill="#101720" fill-opacity=".48" stroke="#ecf2f8" stroke-opacity=".88" stroke-width="18"/>
  <path d="M704 292v104M652 344h104" stroke="#ecf2f8" stroke-opacity=".88" stroke-width="18" stroke-linecap="round"/>
</svg>
